<svg xmlns="http://www.w3.org/2000/svg" width="1600" height="1200" viewBox="0 0 1600 1200">
  <defs>
    <linearGradient id="bg" x1="0" y1="0" x2="1" y2="1">
      <stop offset="0%" stop-color="#0b0f14" />
      <stop offset="100%" stop-color="#162535" />
    </linearGradient>
    <radialGradient id="glow" cx="0.2" cy="0.15" r="0.8">
      <stop offset="0%" stop-color="#22d3ee" stop-opacity="0.5" />
      <stop offset="70%" stop-color="#22d3ee" stop-opacity="0" />
    </radialGradient>
    <radialGradient id="glow2" cx="0.85" cy="0.2" r="0.9">
      <stop offset="0%" stop-color="#f59e0b" stop-opacity="0.4" />
      <stop offset="70%" stop-color="#f59e0b" stop-opacity="0" />
    </radialGradient>
  </defs>
  <rect width="1600" height="1200" fill="url(#bg)" />
  <rect width="1600" height="1200" fill="url(#glow)" />
  <rect width="1600" height="1200" fill="url(#glow2)" />
  <g stroke="#ffffff" stroke-opacity="0.14" stroke-width="2" fill="none">
    <path d="M180 260 L430 320 L660 220 L920 340 L1180 240 L1420 360" />
    <path d="M260 560 L540 520 L820 640 L1080 520 L1340 640" />
    <path d="M240 880 L540 820 L840 940 L1160 820" />
  </g>
  <g fill="#22d3ee" fill-opacity="0.8">
    <circle cx="180" cy="260" r="10" />
    <circle cx="660" cy="220" r="10" />
    <circle cx="920" cy="340" r="10" />
    <circle cx="1180" cy="240" r="10" />
    <circle cx="260" cy="560" r="10" />
    <circle cx="820" cy="640" r="10" />
    <circle cx="1080" cy="520" r="10" />
    <circle cx="240" cy="880" r="10" />
    <circle cx="840" cy="940" r="10" />
  </g>
  <g fill="#f59e0b" fill-opacity="0.85">
    <circle cx="430" cy="320" r="8" />
    <circle cx="1420" cy="360" r="8" />
    <circle cx="540" cy="520" r="8" />
    <circle cx="1340" cy="640" r="8" />
    <circle cx="1160" cy="820" r="8" />
  </g>
</svg>
