<svg xmlns="http://www.w3.org/2000/svg" width="1600" height="1200" viewBox="0 0 1600 1200">
  <defs>
    <linearGradient id="bg" x1="0" y1="0" x2="1" y2="1">
      <stop offset="0%" stop-color="#0b0f14" />
      <stop offset="100%" stop-color="#142232" />
    </linearGradient>
    <linearGradient id="panel" x1="0" y1="0" x2="1" y2="1">
      <stop offset="0%" stop-color="#0f1823" />
      <stop offset="100%" stop-color="#182536" />
    </linearGradient>
  </defs>
  <rect width="1600" height="1200" fill="url(#bg)" />
  <rect x="140" y="150" width="1320" height="900" rx="32" fill="url(#panel)" stroke="#223040" stroke-width="2" />
  <rect x="180" y="190" width="1240" height="70" rx="18" fill="#141f2c" />
  <circle cx="230" cy="225" r="8" fill="#f59e0b" />
  <circle cx="255" cy="225" r="8" fill="#22d3ee" />
  <circle cx="280" cy="225" r="8" fill="#94a3b8" />
  <rect x="200" y="290" width="540" height="310" rx="22" fill="#121c28" stroke="#233142" stroke-width="2" />
  <rect x="760" y="290" width="640" height="220" rx="22" fill="#121c28" stroke="#233142" stroke-width="2" />
  <rect x="760" y="540" width="640" height="300" rx="22" fill="#121c28" stroke="#233142" stroke-width="2" />
  <rect x="200" y="630" width="540" height="210" rx="22" fill="#121c28" stroke="#233142" stroke-width="2" />
  <g fill="#22d3ee" fill-opacity="0.35">
    <rect x="230" y="330" width="220" height="14" rx="7" />
    <rect x="230" y="360" width="300" height="14" rx="7" />
    <rect x="230" y="390" width="180" height="14" rx="7" />
  </g>
  <g fill="#f59e0b" fill-opacity="0.35">
    <rect x="790" y="330" width="240" height="14" rx="7" />
    <rect x="790" y="360" width="320" height="14" rx="7" />
    <rect x="790" y="390" width="200" height="14" rx="7" />
  </g>
  <g stroke="#22d3ee" stroke-opacity="0.5" stroke-width="4" fill="none">
    <path d="M820 620 C900 560 980 700 1060 640 C1140 580 1220 700 1300 630" />
  </g>
</svg>
